<!DOCTYPE svg PUBLIC "-//W3C//DTD SVG 1.1//EN" "http://www.w3.org/Graphics/SVG/1.1/DTD/svg11.dtd">
<!-- Uploaded to: SVG Repo, www.svgrepo.com, Transformed by: SVG Repo Mixer Tools -->
<svg version="1.1" id="Layer_1" xmlns="http://www.w3.org/2000/svg" xmlns:xlink="http://www.w3.org/1999/xlink" viewBox="-136.35 -136.35 777.70 777.70" xml:space="preserve" width="800px" height="800px" fill="#000000">
<g id="SVGRepo_bgCarrier" stroke-width="0">
<path transform="translate(-136.35, -136.35), scale(24.303125)" d="M16,30.91332135455949C18.962459074973314,30.46942451125614,20.702484232091045,27.567533370976893,23.16329723657099,25.85943280737743C25.70322469710815,24.096417284073926,29.377772920353237,23.57992196222009,30.63467539016059,20.75509428223817C31.91430248993238,17.8791940924292,30.643516758125056,14.546413163696874,29.50229638167876,11.612837961218268C28.41650175010972,8.821737949427316,26.77677054172788,6.261579074012058,24.326500915859988,4.539554678623647C21.90272971677355,2.8361531061586165,18.955070038966873,2.332858346136826,16,2.12356236577034C12.82877701301189,1.8989571228250797,9.283083494093225,1.3488205093121581,6.770078084101479,3.2961023475966176C4.272480940921014,5.231444602304476,4.157779620419639,8.837261892316032,3.382778370054135,11.900416180694734C2.6656080468332926,14.734996576579018,1.7959715178497535,17.55369726520609,2.441271311570466,20.405498006748914C3.1299703746257976,23.44909497955545,4.619950320090428,26.356857616185554,7.086491375779316,28.26839211834123C9.597627367331011,30.214487066319027,12.858113080160743,31.384103785788618,16,30.91332135455949" fill="#7ed0ec" strokewidth="0"/>
</g>
<g id="SVGRepo_tracerCarrier" stroke-linecap="round" stroke-linejoin="round"/>
<g id="SVGRepo_iconCarrier"> <circle style="fill:#7ed0ec;" cx="252.5" cy="252.5" r="252.5"/> <path style="fill:#FFFFFF;" d="M424.8,365.8H80.3c-3,0-5.4-2.4-5.4-5.4V144.6c0-3,2.4-5.4,5.4-5.4h344.5c3,0,5.4,2.4,5.4,5.4v215.7 C430.2,363.3,427.8,365.8,424.8,365.8z"/> <path style="fill:#4CDBC4;" d="M102.2,139.2l-27.4,55v-33.5c0-0.4,0-0.8,0.1-1.1l0,0l7.6-15.3c3.7-3.2,8.5-5,13.8-5h5.9V139.2z"/> <polygon style="fill:#FF7058;" points="141.2,139.2 74.8,272.6 74.8,238.1 124.1,139.2 "/> <path style="fill:#4CDBC4;" d="M179.7,139.2L75.3,348.8c-0.3-1.5-0.5-2.9-0.5-4.5v-29l87.7-176.1H179.7z"/> <path style="fill:#FF7058;" d="M218.7,139.2L105.9,365.8h-9.6c-2.5,0-4.8-0.4-7-1.2l112.2-225.4H218.7z"/> <polygon style="fill:#4CDBC4;" points="258.9,139.2 146.1,365.8 128.9,365.8 241.8,139.2 "/> <polygon style="fill:#FF7058;" points="298,139.2 185.2,365.8 168,365.8 280.8,139.2 "/> <polygon style="fill:#4CDBC4;" points="337,139.2 224.2,365.8 207,365.8 319.8,139.2 "/> <polygon style="fill:#FF7058;" points="376.1,139.2 263.3,365.8 246,365.8 358.9,139.2 "/> <path style="fill:#4CDBC4;" d="M415.7,140.4L303.5,365.8h-17.2l112.8-226.6h9.6C411.2,139.2,413.6,139.6,415.7,140.4z"/> <path style="fill:#FF7058;" d="M430.2,160.7v29.1l-87.7,176.1h-17.2l104.4-209.6C430,157.6,430.2,159.1,430.2,160.7z"/> <polygon style="fill:#4CDBC4;" points="430.2,232.4 430.2,266.9 381,365.8 363.8,365.8 "/> <path style="fill:#FF7058;" d="M430.2,310.8v33.5c0,0.4,0,0.7,0,1.1l-7.6,15.2c-3.7,3.2-8.6,5.1-13.9,5.1h-5.9L430.2,310.8z"/> <rect x="94.2" y="157.1" style="fill:#FFFFFF;" width="316.6" height="190.9"/> <g> <rect x="329.3" y="175.1" style="fill:#E6E9EE;" width="62.4" height="73.4"/> <rect x="115.4" y="259.5" style="fill:#E6E9EE;" width="149.4" height="11"/> <rect x="115.4" y="286.4" style="fill:#E6E9EE;" width="149.4" height="11"/> <rect x="115.4" y="313.3" style="fill:#E6E9EE;" width="94.2" height="11"/> </g> </g>
</svg>