<svg width="35" height="39" viewBox="0 0 35 39" fill="none" xmlns="http://www.w3.org/2000/svg">
<path d="M17.4998 38.3855C17.1752 38.3883 16.8579 38.2954 16.5944 38.1201C15.9319 37.7321 0.385254 28.0751 0.385254 16.3355C0.385254 12.1389 2.1884 8.11425 5.39799 5.14687C8.60761 2.17951 12.9608 0.512451 17.4998 0.512451C22.0388 0.512451 26.3921 2.17951 29.6017 5.14687C32.8113 8.11425 34.6144 12.1389 34.6144 16.3355C34.6144 28.0751 19.1561 37.7321 18.4053 38.1201C18.1418 38.2954 17.8245 38.3883 17.4998 38.3855ZM17.4998 3.67703C13.8548 3.66617 10.3541 4.99307 7.76634 7.36641C5.17857 9.73972 3.71529 12.9655 3.69775 16.3355C3.69775 24.9309 14.2757 32.7913 17.4998 34.9759C20.724 32.7913 31.3019 24.9309 31.3019 16.3355C31.2845 12.9655 29.821 9.73972 27.2333 7.36641C24.6456 4.99307 21.1449 3.66617 17.4998 3.67703Z" fill="black"/>
<path d="M17.4997 21.0314C16.2986 21.0314 15.1244 20.7021 14.1258 20.0851C13.127 19.4683 12.3487 18.5914 11.889 17.5655C11.4294 16.5395 11.3091 15.4106 11.5435 14.3215C11.7778 13.2324 12.3562 12.2319 13.2056 11.4467C14.0549 10.6615 15.137 10.1268 16.3149 9.91013C17.4931 9.69349 18.714 9.80468 19.8237 10.2296C20.9334 10.6546 21.8819 11.3742 22.549 12.2975C23.2164 13.2209 23.5726 14.3064 23.5726 15.4168C23.5726 16.9058 22.9328 18.334 21.7938 19.3869C20.6549 20.4399 19.1102 21.0314 17.4997 21.0314ZM17.4997 12.8647C16.9538 12.8647 16.42 13.0144 15.966 13.2948C15.5122 13.5753 15.1584 13.9739 14.9495 14.4402C14.7404 14.9065 14.6858 15.4197 14.7923 15.9148C14.8989 16.4097 15.1617 16.8646 15.5477 17.2215C15.9338 17.5783 16.4258 17.8215 16.9611 17.9199C17.4966 18.0183 18.0515 17.9679 18.5561 17.7748C19.0605 17.5814 19.4916 17.2543 19.7948 16.8348C20.0982 16.415 20.2601 15.9215 20.2601 15.4168C20.2601 14.74 19.9693 14.0909 19.4516 13.6122C18.934 13.1336 18.2317 12.8647 17.4997 12.8647Z" fill="black"/>
</svg>
