<svg width="53" height="49" viewBox="0 0 53 49" fill="none" xmlns="http://www.w3.org/2000/svg">
<path fill-rule="evenodd" clip-rule="evenodd" d="M41.2187 29.2911C39.5169 29.0908 37.8466 28.7069 36.2413 28.1477C34.9364 27.7037 33.4714 27.9893 32.4717 28.8827C31.1516 30.1192 29.0775 30.4042 27.5586 29.3815C25.1597 27.7661 23.0481 25.8145 21.3006 23.5971C20.1942 22.1932 20.5025 20.2757 21.8399 19.0556C22.7886 18.1338 23.096 16.7972 22.6351 15.5984C21.9748 14.0844 21.5102 12.5037 21.2509 10.889C20.9125 9.30362 19.4061 8.16228 17.6579 8.16676H12.3861C11.3816 8.16563 10.4216 8.55014 9.73555 9.22844C9.07054 9.90989 8.74945 10.8201 8.85202 11.7329C9.42177 16.8022 11.2894 21.6732 14.3004 25.9427C17.0312 29.9093 20.6706 33.2731 24.9616 35.7972C29.5869 38.5488 34.8388 40.2726 40.3058 40.8335H40.6001C41.496 40.8389 42.3602 40.5272 43.0152 39.9622C43.7505 39.3406 44.1675 38.4606 44.1637 37.5394V32.6668C44.2348 31.0187 42.9761 29.5761 41.2187 29.2911Z" stroke="#0C0310" stroke-width="5.33333" stroke-linecap="round"/>
</svg>
