<!DOCTYPE svg PUBLIC "-//W3C//DTD SVG 1.1//EN" "http://www.w3.org/Graphics/SVG/1.1/DTD/svg11.dtd">
<!-- Uploaded to: SVG Repo, www.svgrepo.com, Transformed by: SVG Repo Mixer Tools -->
<svg width="64px" height="64px" viewBox="0 0 1024 1024" class="icon" version="1.1" xmlns="http://www.w3.org/2000/svg" fill="#000000">
<g id="SVGRepo_bgCarrier" stroke-width="0"/>
<g id="SVGRepo_tracerCarrier" stroke-linecap="round" stroke-linejoin="round"/>
<g id="SVGRepo_iconCarrier">
<path d="M424.228571 899.657143H138.971429c-51.2 0-95.085714-43.885714-95.085715-95.085714V146.285714c0-51.2 43.885714-95.085714 95.085715-95.085714h548.571428c51.2 0 95.085714 43.885714 95.085714 95.085714v219.428572c0 14.628571-14.628571 29.257143-29.257142 29.257143S731.428571 365.714286 731.428571 351.085714v-219.428571c0-21.942857-21.942857-43.885714-43.885714-43.885714H138.971429c-21.942857 0-43.885714 21.942857-43.885715 43.885714v658.285714c0 21.942857 21.942857 43.885714 43.885715 43.885714h285.257142c14.628571 0 29.257143 14.628571 29.257143 29.257143s-14.628571 36.571429-29.257143 36.571429z" fill="#D72822"/>
<path d="M650.971429 256H175.542857c-14.628571 0-29.257143-14.628571-29.257143-29.257143s14.628571-29.257143 29.257143-29.257143h475.428572c14.628571 0 29.257143 14.628571 29.257142 29.257143s-14.628571 29.257143-29.257142 29.257143zM453.485714 526.628571H175.542857c-14.628571 0-29.257143-14.628571-29.257143-29.257142s14.628571-29.257143 29.257143-29.257143h277.942857c14.628571 0 29.257143 14.628571 29.257143 29.257143s-14.628571 29.257143-29.257143 29.257142zM453.485714 687.542857H175.542857c-14.628571 0-29.257143-14.628571-29.257143-29.257143s14.628571-29.257143 29.257143-29.257143h277.942857c14.628571 0 29.257143 14.628571 29.257143 29.257143s-14.628571 29.257143-29.257143 29.257143zM650.971429 380.342857H175.542857c-14.628571 0-29.257143-7.314286-29.257143-21.942857s14.628571-29.257143 29.257143-29.257143h475.428572c14.628571 0 29.257143 14.628571 29.257142 29.257143s-14.628571 21.942857-29.257142 21.942857z" fill="#D72822"/>
<path d="M760.685714 512m-73.142857 0a73.142857 73.142857 0 1 0 146.285714 0 73.142857 73.142857 0 1 0-146.285714 0Z" fill="#F4B1B2"/>
<path d="M760.685714 614.4c-58.514286 0-109.714286-43.885714-109.714285-102.4s43.885714-102.4 102.4-102.4c58.514286 0 102.4 43.885714 102.4 102.4 7.314286 58.514286-36.571429 102.4-95.085715 102.4z m0-153.6c-29.257143 0-51.2 21.942857-51.2 51.2s21.942857 51.2 51.2 51.2 43.885714-21.942857 43.885715-51.2-21.942857-51.2-43.885715-51.2z" fill="#D72822"/>
<path d="M760.685714 607.085714l-138.971428 153.6h270.628571z" fill="#F4B1B2"/>
<path d="M958.171429 789.942857H563.2l197.485714-226.742857 197.485715 226.742857zM680.228571 731.428571h153.6l-73.142857-87.771428L680.228571 731.428571z" fill="#D72822"/>
<path d="M950.857143 906.971429H570.514286c-21.942857 0-36.571429-14.628571-36.571429-36.571429V804.571429c0-21.942857 14.628571-36.571429 36.571429-36.571429H950.857143c21.942857 0 36.571429 14.628571 36.571428 36.571429v65.828571c0 14.628571-14.628571 36.571429-36.571428 36.571429z" fill="#F4B1B2"/>
<path d="M950.857143 936.228571H570.514286c-36.571429 0-65.828571-29.257143-65.828572-65.828571V804.571429c0-36.571429 29.257143-65.828571 65.828572-65.828572H950.857143c36.571429 0 65.828571 29.257143 65.828571 65.828572v65.828571c0 29.257143-29.257143 65.828571-65.828571 65.828571z m-380.342857-153.6c-7.314286 0-14.628571 7.314286-14.628572 14.628572v65.828571c0 7.314286 7.314286 14.628571 14.628572 14.628572H950.857143c7.314286 0 14.628571-7.314286 14.628571-14.628572v-65.828571c0-7.314286-7.314286-14.628571-14.628571-14.628572H570.514286z" fill="#D72822"/>
</g>
</svg>