<svg width="27" height="33" viewBox="0 0 27 33" fill="none" xmlns="http://www.w3.org/2000/svg">
<path fill-rule="evenodd" clip-rule="evenodd" d="M17.4479 0.885444C17.1744 0.611963 16.8034 0.458313 16.4167 0.458313H4.75C2.33369 0.458313 0.375 2.41707 0.375 4.83331V28.1666C0.375 30.583 2.33369 32.5416 4.75 32.5416H22.25C24.6662 32.5416 26.625 30.583 26.625 28.1666V10.6666C26.625 10.2799 26.4713 9.90894 26.1979 9.63545L17.4479 0.885444ZM4.75 3.37498H14.9583V10.6666C14.9583 11.4721 15.6112 12.125 16.4167 12.125H23.7083V28.1666C23.7083 28.9721 23.0554 29.625 22.25 29.625H4.75C3.94456 29.625 3.29167 28.9721 3.29167 28.1666V4.83331C3.29167 4.0279 3.94456 3.37498 4.75 3.37498ZM21.6459 9.20831H17.875V5.43737L21.6459 9.20831ZM20.7917 17.9583C20.7917 17.1529 20.1387 16.5 19.3333 16.5H7.66667C6.86123 16.5 6.20833 17.1529 6.20833 17.9583C6.20833 18.7638 6.86123 19.4166 7.66667 19.4166H19.3333C20.1387 19.4166 20.7917 18.7638 20.7917 17.9583ZM20.7917 23.7916C20.7917 22.9862 20.1387 22.3333 19.3333 22.3333H7.66667C6.86123 22.3333 6.20833 22.9862 6.20833 23.7916C6.20833 24.5971 6.86123 25.25 7.66667 25.25H19.3333C20.1387 25.25 20.7917 24.5971 20.7917 23.7916Z" fill="black"/>
</svg>
