<svg width="20" height="20" viewBox="0 0 20 20" fill="none" xmlns="http://www.w3.org/2000/svg">
<path d="M11.6668 1.66675H5.00016C4.55814 1.66675 4.13421 1.84234 3.82165 2.1549C3.50909 2.46746 3.3335 2.89139 3.3335 3.33341V16.6667C3.3335 17.1088 3.50909 17.5327 3.82165 17.8453C4.13421 18.1578 4.55814 18.3334 5.00016 18.3334H15.0002C15.4422 18.3334 15.8661 18.1578 16.1787 17.8453C16.4912 17.5327 16.6668 17.1088 16.6668 16.6667V6.66675L11.6668 1.66675Z" stroke="black" stroke-width="2" stroke-linecap="round" stroke-linejoin="round"/>
<path d="M11.6665 1.66675V6.66675H16.6665" stroke="black" stroke-width="2" stroke-linecap="round" stroke-linejoin="round"/>
<path d="M13.3332 10.8333H6.6665" stroke="black" stroke-width="2" stroke-linecap="round" stroke-linejoin="round"/>
<path d="M13.3332 14.1667H6.6665" stroke="black" stroke-width="2" stroke-linecap="round" stroke-linejoin="round"/>
<path d="M8.33317 7.5H7.49984H6.6665" stroke="black" stroke-width="2" stroke-linecap="round" stroke-linejoin="round"/>
</svg>
