<svg width="21" height="19" viewBox="0 0 21 19" fill="none" xmlns="http://www.w3.org/2000/svg">
<path d="M5.25 2.375V11.875" stroke="black" stroke-width="2" stroke-linecap="round" stroke-linejoin="round"/>
<path d="M15.75 7.125C17.1997 7.125 18.375 6.06168 18.375 4.75C18.375 3.43832 17.1997 2.375 15.75 2.375C14.3003 2.375 13.125 3.43832 13.125 4.75C13.125 6.06168 14.3003 7.125 15.75 7.125Z" stroke="black" stroke-width="2" stroke-linecap="round" stroke-linejoin="round"/>
<path d="M5.25 16.625C6.69975 16.625 7.875 15.5617 7.875 14.25C7.875 12.9383 6.69975 11.875 5.25 11.875C3.80025 11.875 2.625 12.9383 2.625 14.25C2.625 15.5617 3.80025 16.625 5.25 16.625Z" stroke="black" stroke-width="2" stroke-linecap="round" stroke-linejoin="round"/>
<path d="M15.75 7.125C15.75 9.01467 14.9203 10.8269 13.4435 12.1631C11.9666 13.4993 9.96358 14.25 7.875 14.25" stroke="black" stroke-width="2" stroke-linecap="round" stroke-linejoin="round"/>
</svg>
