<svg width="25" height="25" viewBox="0 0 25 25"  xmlns="http://www.w3.org/2000/svg">
<g clip-path="url(#clip0_856_542)">
<path d="M4.16665 8.33335C6.1083 8.33335 7.73955 7.00557 8.20205 5.20835H23.9583C24.5336 5.20835 25 4.74199 25 4.1667C25 3.59136 24.5336 3.125 23.9583 3.125H8.2021C7.7396 1.32778 6.10835 0 4.1667 0C1.86533 0 0 1.86533 0 4.16665C0 6.46797 1.86533 8.33335 4.16665 8.33335ZM4.16665 2.08335C5.31738 2.08335 6.25 3.01592 6.25 4.1667C6.25 5.31748 5.31743 6.25 4.16665 6.25C3.01587 6.25 2.0833 5.31743 2.0833 4.16665C2.0833 3.01587 3.01592 2.08335 4.16665 2.08335Z" />
<path d="M20.8333 16.6666C18.8917 16.6666 17.2604 17.9944 16.7979 19.7916H1.04165C0.466357 19.7916 0 20.2581 0 20.8333C0 21.4086 0.466357 21.875 1.04165 21.875H16.7979C17.2604 23.6722 18.8916 25 20.8333 25C23.1347 25 25 23.1347 25 20.8333C25 18.532 23.1347 16.6666 20.8333 16.6666ZM20.8333 22.9166C19.6826 22.9166 18.75 21.9841 18.75 20.8333C18.75 19.6825 19.6826 18.75 20.8333 18.75C21.9841 18.75 22.9167 19.6826 22.9167 20.8333C22.9167 21.9841 21.9841 22.9166 20.8333 22.9166Z"/>
<path d="M23.9584 11.4584H16.5354C16.0729 9.66115 14.4417 8.33337 12.5 8.33337C10.5584 8.33337 8.9271 9.66115 8.4646 11.4584H1.04165C0.466357 11.4584 0 11.9247 0 12.5C0 13.0753 0.466357 13.5417 1.04165 13.5417H8.46455C8.92705 15.3389 10.5583 16.6666 12.5 16.6666C14.4416 16.6666 16.0729 15.3389 16.5354 13.5417H23.9583C24.5335 13.5417 24.9999 13.0753 24.9999 12.5C24.9999 11.9247 24.5336 11.4584 23.9584 11.4584ZM12.5 14.5834C11.3493 14.5834 10.4167 13.6508 10.4167 12.5C10.4167 11.3492 11.3492 10.4167 12.5 10.4167C13.6508 10.4167 14.5834 11.3492 14.5834 12.5C14.5834 13.6508 13.6507 14.5834 12.5 14.5834Z" />
</g>
<defs>
<clipPath id="clip0_856_542">
<rect width="25" height="25" />
</clipPath>
</defs>
</svg>
