<svg width="25" height="19" viewBox="0 0 25 19" xmlns="http://www.w3.org/2000/svg">
<path d="M6.24966 9.74024C6.82466 9.74024 7.29131 9.30389 7.29131 8.76622C7.29131 8.22856 6.82466 7.79216 6.24966 7.79216C5.67466 7.79216 5.20801 8.22851 5.20801 8.76617C5.20801 9.30384 5.67466 9.74024 6.24966 9.74024Z" />
<path d="M10.4167 9.74024C10.9917 9.74024 11.4583 9.30389 11.4583 8.76622C11.4583 8.22856 10.9917 7.79216 10.4167 7.79216C9.84165 7.79216 9.375 8.22851 9.375 8.76617C9.375 9.30384 9.84165 9.74024 10.4167 9.74024Z"/>
<path d="M14.5836 9.74024C15.1586 9.74024 15.6253 9.30389 15.6253 8.76622C15.6253 8.22856 15.1586 7.79216 14.5836 7.79216C14.0086 7.79216 13.542 8.22851 13.542 8.76617C13.542 9.30384 14.0086 9.74024 14.5836 9.74024Z" />
<path d="M18.7497 9.74024C19.3247 9.74024 19.7913 9.30389 19.7913 8.76622C19.7913 8.22856 19.3247 7.79216 18.7497 7.79216C18.1747 7.79216 17.708 8.22851 17.708 8.76617C17.708 9.30384 18.1747 9.74024 18.7497 9.74024Z" />
<path d="M6.24966 12.6623C6.82466 12.6623 7.29131 12.226 7.29131 11.6883C7.29131 11.1506 6.82466 10.7142 6.24966 10.7142C5.67466 10.7142 5.20801 11.1506 5.20801 11.6882C5.20801 12.2259 5.67466 12.6623 6.24966 12.6623Z" />
<path d="M10.4167 12.6623C10.9917 12.6623 11.4583 12.226 11.4583 11.6883C11.4583 11.1506 10.9917 10.7142 10.4167 10.7142C9.84165 10.7142 9.375 11.1506 9.375 11.6882C9.375 12.2259 9.84165 12.6623 10.4167 12.6623Z" />
<path d="M14.5836 12.6623C15.1586 12.6623 15.6253 12.226 15.6253 11.6883C15.6253 11.1506 15.1586 10.7142 14.5836 10.7142C14.0086 10.7142 13.542 11.1506 13.542 11.6882C13.542 12.2259 14.0086 12.6623 14.5836 12.6623Z"/>
<path d="M18.7497 12.6623C19.3247 12.6623 19.7913 12.226 19.7913 11.6883C19.7913 11.1506 19.3247 10.7142 18.7497 10.7142C18.1747 10.7142 17.708 11.1506 17.708 11.6882C17.708 12.2259 18.1747 12.6623 18.7497 12.6623Z" />
<path d="M6.24966 15.5844C6.82466 15.5844 7.29131 15.148 7.29131 14.6104C7.29131 14.0727 6.82466 13.6363 6.24966 13.6363C5.67466 13.6363 5.20801 14.0727 5.20801 14.6103C5.20801 15.148 5.67466 15.5844 6.24966 15.5844Z" />
<path d="M10.4167 15.5844C10.9917 15.5844 11.4583 15.148 11.4583 14.6104C11.4583 14.0727 10.9917 13.6363 10.4167 13.6363C9.84165 13.6363 9.375 14.0727 9.375 14.6103C9.375 15.148 9.84165 15.5844 10.4167 15.5844Z" />
<path d="M14.5836 15.5844C15.1586 15.5844 15.6253 15.148 15.6253 14.6104C15.6253 14.0727 15.1586 13.6363 14.5836 13.6363C14.0086 13.6363 13.542 14.0727 13.542 14.6103C13.542 15.148 14.0086 15.5844 14.5836 15.5844Z" />
<path d="M18.7497 15.5844C19.3247 15.5844 19.7913 15.148 19.7913 14.6104C19.7913 14.0727 19.3247 13.6363 18.7497 13.6363C18.1747 13.6363 17.708 14.0727 17.708 14.6103C17.708 15.148 18.1747 15.5844 18.7497 15.5844Z" />
<path d="M22.9167 0.97401H21.875C21.875 0.436074 21.4086 3.58458e-09 20.8333 3.58458e-09C20.2581 3.58458e-09 19.7917 0.436074 19.7917 0.97401H17.7083C17.7083 0.436074 17.242 3.58458e-09 16.6667 3.58458e-09C16.0914 3.58458e-09 15.625 0.436074 15.625 0.97401H13.5417C13.5417 0.436074 13.0753 3.58458e-09 12.5 3.58458e-09C11.9248 3.58458e-09 11.4584 0.436074 11.4584 0.97401H9.375C9.375 0.436074 8.90864 3.58458e-09 8.33335 3.58458e-09C7.75806 3.58458e-09 7.2917 0.436074 7.2917 0.97401H5.20835C5.20835 0.436074 4.74199 3.58458e-09 4.1667 3.58458e-09C3.59136 -4.56539e-05 3.125 0.436074 3.125 0.97401H2.08335C0.933057 0.97401 0 1.84643 0 2.92203V5.84411V16.5584C0 17.634 0.933057 18.5065 2.08335 18.5065H22.9167C24.0669 18.5065 25 17.634 25 16.5584V5.84411V2.92203C25 1.84643 24.0669 0.97401 22.9167 0.97401ZM2.08335 2.92203H3.125C3.125 3.45997 3.59136 3.89604 4.16665 3.89604C4.74194 3.89604 5.2083 3.45997 5.2083 2.92203H7.29165C7.29165 3.45997 7.75801 3.89604 8.3333 3.89604C8.90859 3.89604 9.37495 3.45997 9.37495 2.92203H11.4583C11.4583 3.45997 11.9247 3.89604 12.5 3.89604C13.0752 3.89604 13.5416 3.45997 13.5416 2.92203H15.625C15.625 3.45997 16.0914 3.89604 16.6667 3.89604C17.2419 3.89604 17.7083 3.45997 17.7083 2.92203H19.7917C19.7917 3.45997 20.258 3.89604 20.8333 3.89604C21.4086 3.89604 21.875 3.45997 21.875 2.92203H22.9167V4.8701H2.08335V2.92203ZM22.9167 16.5584H2.08335V6.81816H22.9167V16.5584H22.9167Z" />
</svg>
