<svg width="26" height="22" viewBox="0 0 26 22"  xmlns="http://www.w3.org/2000/svg">
<path d="M22.749 4.05227H21.6667V4.05199C21.6667 3.49253 21.1817 3.03901 20.5834 3.03901C19.9851 3.03901 19.5001 3.49253 19.5001 4.05199V4.05227H18.4168V3.03389C18.4168 1.35813 16.9643 0 15.1722 0H10.828C9.03588 0 7.58343 1.35813 7.58343 3.03389V4.05222H6.50001V4.05194C6.50001 3.49249 6.015 3.03897 5.41669 3.03897C4.81839 3.03897 4.33338 3.49249 4.33338 4.05194V4.05222H3.25107C1.4557 4.05227 0 5.4134 0 7.09224V18.2321C0 19.9117 1.45544 21.2731 3.25107 21.2731H22.7489C24.5446 21.2731 26 19.9117 26 18.2321V7.09224C26.0001 5.4134 24.5444 4.05227 22.749 4.05227ZM9.75002 3.03389C9.75002 2.47704 10.2324 2.02595 10.828 2.02595H15.1721C15.7677 2.02595 16.2501 2.477 16.2501 3.03389V4.05194H9.75002V3.03389ZM19.5 6.07822V19.2471H6.50001V6.07822H19.5ZM2.16669 18.2321V7.09224C2.16669 6.53235 2.65231 6.07822 3.25112 6.07822H4.33338V19.2471H3.25107C2.65221 19.2471 2.16669 18.7929 2.16669 18.2321ZM23.8334 18.2321C23.8334 18.7929 23.3478 19.2471 22.7489 19.2471H21.6667V6.07822H22.7489C23.3477 6.07822 23.8334 6.53231 23.8334 7.09224V18.2321Z"/>
</svg>
