<svg width="23" height="24" viewBox="0 0 23 24"  xmlns="http://www.w3.org/2000/svg">
<path d="M23 4.48291L18.2058 0H4.18184V3.91025H0V23.4616H17.7727V19.5513H23V4.48291ZM15.6818 21.5064H2.09092V5.8654H4.18184V19.5513H15.6818V21.5064H15.6818ZM20.9091 17.5962H17.7727H6.27272V3.91025V1.95515H17.3397L20.9091 5.29274V17.5962Z" />
<path d="M9.40872 6.84296H14.636C15.2134 6.84296 15.6814 6.40531 15.6814 5.86542C15.6814 5.32553 15.2134 4.88788 14.636 4.88788H9.40872C8.83133 4.88788 8.36328 5.32553 8.36328 5.86542C8.36328 6.40531 8.83133 6.84296 9.40872 6.84296Z" />
<path d="M8.36328 9.77564C8.36328 10.3155 8.83133 10.7532 9.40872 10.7532H17.7724C18.3497 10.7532 18.8178 10.3155 18.8178 9.77564C18.8178 9.23575 18.3497 8.7981 17.7724 8.7981H9.40872C8.83133 8.7981 8.36328 9.23575 8.36328 9.77564Z" />
<path d="M17.7724 12.7083H9.40872C8.83133 12.7083 8.36328 13.146 8.36328 13.6859C8.36328 14.2258 8.83133 14.6635 9.40872 14.6635H17.7724C18.3497 14.6635 18.8178 14.2258 18.8178 13.6859C18.8178 13.1461 18.3497 12.7083 17.7724 12.7083Z" />
</svg>
