<svg width="20" height="23" viewBox="0 0 20 23"  xmlns="http://www.w3.org/2000/svg">
<path d="M17.613 14.9909L17.4389 14.9381L14 14.2133V12.5749C15.2571 11.5226 16 10.0279 16 8.41558V5.16247C16 2.31122 13.5283 0 10.479 0H9.52101C6.47175 0 4.00003 2.31122 4.00003 5.16247V8.41558C4.00003 10.0279 4.74286 11.5226 6.00004 12.5749V14.2133L2.56111 14.9381L2.38697 14.9909C0.939327 15.5712 0 16.9032 0 18.3759V20.304C0 20.7318 0.310453 21.105 0.75389 21.2103L2.40787 21.603C7.37709 22.72 12.5867 22.7197 17.5781 21.6062L19.2461 21.2103C19.6895 21.105 20 20.7318 20 20.304V18.3759C20 16.9032 19.0607 15.5712 17.613 14.9909ZM18 19.5767L17.0998 19.7904C12.4282 20.8325 7.53778 20.8327 2.88769 19.7876L1.99997 19.5767V18.3759C1.99997 17.6771 2.43023 17.0421 3.09989 16.7416L7.21987 15.8732C7.67601 15.7771 7.99996 15.3982 7.99996 14.9611V12.1343C7.99996 11.8411 7.85282 11.5648 7.60251 11.3881C6.5984 10.6792 6 9.59455 6 8.41558V5.16247C6 3.34405 7.57626 1.8701 9.52101 1.8701H10.479C12.4237 1.8701 14 3.34401 14 5.16247V8.41558C14 9.59455 13.4016 10.6792 12.3975 11.3881C12.1472 11.5648 12 11.8411 12 12.1343V14.9611C12 15.3983 12.324 15.7771 12.7801 15.8732L16.9001 16.7416C17.5698 17.0421 18 17.6771 18 18.3759V19.5767H18Z"/>
</svg>
