<svg width="25" height="24" viewBox="0 0 25 24"  xmlns="http://www.w3.org/2000/svg">
<path d="M15.6251 14.6105C15.0498 14.6105 14.5834 15.0466 14.5834 15.5845V21.4287H2.08336V1.94808H14.5834V7.79228C14.5834 8.33022 15.0498 8.76629 15.6251 8.76629C16.2004 8.76629 16.6668 8.33022 16.6668 7.79228V0.974017C16.6668 0.436077 16.2004 0 15.6251 0H1.04166C0.466361 0 0 0.436077 0 0.974017V22.4027C0 22.9407 0.466361 23.3768 1.04166 23.3768H15.6251C16.2004 23.3768 16.6668 22.9407 16.6668 22.4028V15.5845C16.6668 15.0466 16.2004 14.6105 15.6251 14.6105Z" />
<path d="M24.7646 12.3057C24.7746 12.2944 24.7831 12.2825 24.7925 12.2708C24.8035 12.257 24.815 12.2435 24.8252 12.2291C24.8352 12.2152 24.8438 12.2008 24.8529 12.1866C24.8612 12.1736 24.8699 12.1608 24.8776 12.1474C24.8859 12.1329 24.893 12.118 24.9004 12.1031C24.9075 12.0891 24.9149 12.0754 24.9213 12.0611C24.9277 12.0467 24.9329 12.032 24.9384 12.0174C24.9443 12.002 24.9506 11.9868 24.9557 11.9711C24.9604 11.9565 24.9639 11.9416 24.9679 11.9269C24.9722 11.9108 24.977 11.895 24.9805 11.8787C24.9841 11.8616 24.9862 11.8443 24.9889 11.8271C24.9911 11.8129 24.994 11.7989 24.9955 11.7845C25.0022 11.7206 25.0022 11.6562 24.9955 11.5922C24.994 11.5779 24.9911 11.5639 24.9889 11.5496C24.9863 11.5324 24.9841 11.5151 24.9805 11.4981C24.977 11.4817 24.9722 11.4659 24.9679 11.4499C24.9639 11.4351 24.9604 11.4203 24.9557 11.4056C24.9506 11.3899 24.9443 11.3747 24.9384 11.3594C24.9328 11.3448 24.9277 11.3301 24.9213 11.3157C24.915 11.3014 24.9075 11.2876 24.9004 11.2736C24.893 11.2588 24.8859 11.2438 24.8776 11.2293C24.8699 11.2159 24.8612 11.2032 24.8529 11.1902C24.8438 11.1759 24.8352 11.1615 24.8252 11.1476C24.8149 11.1333 24.8035 11.1197 24.7925 11.1059C24.7831 11.0943 24.7745 11.0824 24.7646 11.0711C24.7432 11.0466 24.7205 11.0231 24.6966 11.0008C24.6963 11.0004 24.6959 11 24.6956 10.9997L20.5289 7.10358C20.1221 6.7232 19.4626 6.7232 19.0558 7.10358C18.649 7.48396 18.649 8.1007 19.0558 8.48108L21.4442 10.7144H12.5006C11.9253 10.7144 11.459 11.1505 11.459 11.6884C11.459 12.2264 11.9253 12.6625 12.5006 12.6625H21.4442L19.0558 14.8958C18.649 15.2762 18.649 15.8929 19.0558 16.2733C19.4626 16.6537 20.1221 16.6537 20.5289 16.2733L24.6956 12.3772C24.696 12.3768 24.6963 12.3765 24.6966 12.3761C24.7205 12.3536 24.7432 12.3301 24.7646 12.3057Z"/>
</svg>
