<svg width="25" height="24" viewBox="0 0 25 24"  xmlns="http://www.w3.org/2000/svg">
<path d="M24.5834 5.06492L20.4167 2.14284C20.2364 2.01637 20.0171 1.94802 19.7917 1.94802H13.5417V0.974012C13.5417 0.436075 13.0753 0 12.5 0C11.9247 0 11.4584 0.436075 11.4584 0.974012V1.94802H1.04165C0.466358 1.94807 0 2.38414 0 2.92208V8.76624C0 9.30418 0.466358 9.74025 1.04165 9.74025H11.4583V22.4026C11.4583 22.9405 11.9247 23.3766 12.5 23.3766C13.0753 23.3766 13.5416 22.9405 13.5416 22.4026V9.74025H19.7916C20.017 9.74025 20.2363 9.6719 20.4166 9.54543L24.5833 6.62335C25.1389 6.23376 25.1389 5.45457 24.5834 5.06492ZM19.4445 7.79223H2.08335V3.89609H19.4445L22.2222 5.84416L19.4445 7.79223Z" />
</svg>
