<svg width="25" height="25" viewBox="0 0 25 25"  xmlns="http://www.w3.org/2000/svg">
<g clip-path="url(#clip0_856_606)">
<path d="M2.79443 0.268707H17.0797C17.227 0.269888 17.351 0.315656 17.4624 0.403354L22.5273 3.98242C22.7015 4.09019 22.8178 4.28301 22.8178 4.50299V24.1198C22.8178 24.4576 22.5438 24.7313 22.2063 24.7313H2.79443C2.45663 24.7313 2.18262 24.4576 2.18262 24.1198V0.880228C2.18262 0.54243 2.45663 0.268707 2.79443 0.268707ZM6.84328 15.6187C6.03895 15.6187 6.03895 14.3957 6.84328 14.3957H18.1572C18.9618 14.3957 18.9618 15.6187 18.1572 15.6187H6.84328ZM6.84328 21.6734C6.03895 21.6734 6.03895 20.4504 6.84328 20.4504H18.1572C18.9618 20.4504 18.9618 21.6734 18.1572 21.6734H6.84328ZM6.84328 18.6462C6.03895 18.6462 6.03895 17.4229 6.84328 17.4229H18.1572C18.9618 17.4229 18.9618 18.6462 18.1572 18.6462H6.84328ZM10.7277 8.93718C11.6421 9.62075 12.1837 10.692 12.1837 11.8371C12.1837 12.1749 11.91 12.4486 11.5722 12.4486H5.55942C5.22162 12.4486 4.9476 12.1749 4.9476 11.8371C4.9476 10.692 5.48943 9.62075 6.40362 8.93718C6.0791 8.49397 5.88717 7.94711 5.88717 7.35567C5.88717 5.87662 7.08659 4.67721 8.56564 4.67721C10.045 4.67721 11.2441 5.87662 11.2441 7.35567C11.2441 7.94711 11.0525 8.49397 10.7277 8.93718ZM7.37744 9.75687C6.81937 10.0758 6.41188 10.604 6.24919 11.2256H10.8824C10.7197 10.604 10.3122 10.0758 9.75384 9.75687C9.39596 9.93433 8.99232 10.0341 8.56564 10.0341C8.13896 10.0341 7.73561 9.93433 7.37744 9.75687ZM8.56564 5.90054C7.76189 5.90054 7.11051 6.55193 7.11051 7.35567C7.11051 8.15971 7.76189 8.8111 8.56564 8.8111C9.36939 8.8111 10.0211 8.15971 10.0211 7.35567C10.0211 6.55193 9.36968 5.90054 8.56564 5.90054ZM21.5948 5.11451H17.0797C16.7422 5.11451 16.4682 4.84049 16.4682 4.50299V1.49175H3.40595V23.5083H21.5948V5.11451ZM17.6912 2.05986V3.89147H20.2832L17.6912 2.05986Z"  stroke-width="0.64"/>
</g>
<defs>
<clipPath id="clip0_856_606">
<rect width="25" height="25" />
</clipPath>
</defs>
</svg>
