<svg width="22" height="27" viewBox="0 0 22 27"  xmlns="http://www.w3.org/2000/svg">
<path d="M21.1157 3.10567L20.4392 2.97915C17.3352 2.3987 14.326 1.43311 11.4918 0.108518C11.1822 -0.0361728 10.8178 -0.0361728 10.5082 0.108518C7.67303 1.43355 4.66476 2.39884 1.5608 2.97915L0.884247 3.10567C0.370065 3.20181 0 3.62397 0 4.11426V7.90145C0 12.3349 1.88363 16.5873 5.23587 19.7219L10.2222 24.3844C10.6517 24.7861 11.3483 24.7861 11.7778 24.3844L16.7641 19.7219C20.1164 16.5873 22 12.3349 22 7.90145V4.11426C21.9999 3.62397 21.6299 3.20186 21.1157 3.10567ZM19.8 7.9015C19.8 11.7893 18.1481 15.5185 15.2084 18.2673L10.9999 22.2026L6.79146 18.2673C3.85178 15.5185 2.19992 11.7893 2.19992 7.9015V4.95695C5.24345 4.37134 8.1985 3.43666 10.9999 2.17431C13.8007 3.43627 16.7565 4.37115 19.8 4.95695V7.9015Z" />
<g filter="url(#filter0_d_856_564)">
<path d="M10.5599 4.6253C8.82467 5.33256 7.03478 5.92429 5.20725 6.39511C4.73003 6.51806 4.39941 6.92388 4.39941 7.38673V7.90205C4.39941 11.2654 5.80321 14.4339 8.3471 16.8126L10.2214 18.5662C10.651 18.9682 11.3479 18.9682 11.7775 18.5662L13.6519 16.8125C16.196 14.4347 17.5995 11.2665 17.5995 7.90205V7.38673C17.5995 6.92388 17.2689 6.51806 16.7917 6.39511C14.966 5.92482 13.177 5.33328 11.4388 4.62525C11.1585 4.51103 10.8401 4.51108 10.5599 4.6253ZM15.3961 8.1612C15.3266 10.8826 14.1624 13.4268 12.0962 15.3579L10.9994 16.384L9.903 15.3583C7.83683 13.4263 6.67224 10.8818 6.60268 8.1612C8.09671 7.74612 9.56511 7.25395 10.9995 6.68738C12.4355 7.25434 13.9034 7.74641 15.3961 8.1612Z" />
</g>
<defs>
<filter id="filter0_d_856_564" x="0.399414" y="4.53961" width="21.2002" height="22.3281" filterUnits="userSpaceOnUse" color-interpolation-filters="sRGB">
<feFlood flood-opacity="0" result="BackgroundImageFix"/>
<feColorMatrix in="SourceAlpha" type="matrix" values="0 0 0 0 0 0 0 0 0 0 0 0 0 0 0 0 0 0 127 0" result="hardAlpha"/>
<feOffset dy="4"/>
<feGaussianBlur stdDeviation="2"/>
<feComposite in2="hardAlpha" operator="out"/>
<feColorMatrix type="matrix" values="0 0 0 0 0 0 0 0 0 0 0 0 0 0 0 0 0 0 0.25 0"/>
<feBlend mode="normal" in2="BackgroundImageFix" result="effect1_dropShadow_856_564"/>
<feBlend mode="normal" in="SourceGraphic" in2="effect1_dropShadow_856_564" result="shape"/>
</filter>
</defs>
</svg>
