<svg width="24" height="23" viewBox="0 0 24 23"  xmlns="http://www.w3.org/2000/svg">
<path d="M23.4908 1.31588C23.3758 1.15199 23.242 0.996523 23.0882 0.852755C22.7961 0.57964 22.4597 0.371702 22.1001 0.229556C21.2182 -0.119169 20.1976 -0.0715239 19.3496 0.378978C19.3328 0.38792 19.3157 0.396336 19.2989 0.405584C19.297 0.406636 19.2953 0.407776 19.2934 0.408828C19.124 0.503197 18.9619 0.613785 18.8096 0.740984L18.7922 0.7558L16.5681 2.61742C16.507 2.66853 16.4553 2.72542 16.411 2.78578L4.56911 12.8807C4.56246 12.8864 4.55679 12.8927 4.55036 12.8985C4.54554 12.9028 4.54033 12.9066 4.53555 12.911C4.14414 13.277 3.51263 13.277 3.12221 12.9115C2.5229 12.3504 1.49562 12.6977 1.41875 13.4875L0.743458 20.4241L0.29289 20.8454C-0.0976301 21.2106 -0.0976301 21.8026 0.29289 22.1678C0.683411 22.533 1.31661 22.533 1.70713 22.1678L2.15849 21.7458L9.57622 21.1154C10.4206 21.0436 10.7924 20.0835 10.1928 19.5229C9.80141 19.1569 9.80141 18.5664 10.1924 18.2013C10.199 18.1951 10.2046 18.1884 10.2111 18.182C10.2156 18.1776 10.2205 18.1738 10.2249 18.1693L21.0199 7.09741C21.0849 7.05577 21.1462 7.00716 21.2012 6.9497L23.2073 4.8542C24.1642 3.8529 24.2499 2.39717 23.4908 1.31588ZM20.1288 2.14706L20.1431 2.1351C20.5836 1.76651 21.2556 1.78396 21.6741 2.17533C21.7524 2.24862 21.8167 2.33023 21.867 2.41724C22.0845 2.79428 22.0368 3.272 21.7164 3.60723L20.4032 4.95413L18.702 3.36339L20.1288 2.14706ZM17.2224 4.62469L19.0543 6.33759L9.45247 16.1856L6.69047 13.603L17.2224 4.62469ZM7.94978 19.3757L4.3675 19.6802L5.24314 18.8614C5.63366 18.4962 5.63366 17.9042 5.24314 17.539C4.85262 17.1738 4.21942 17.1738 3.8289 17.539L2.95284 18.3582L3.27891 15.0085C3.8972 15.1158 4.54455 15.0403 5.12211 14.7819L8.19175 17.6523C7.91561 18.1922 7.83493 18.7975 7.94978 19.3757Z" />
</svg>
