<svg width="20" height="25" viewBox="0 0 20 25"  xmlns="http://www.w3.org/2000/svg">
<path d="M19.7492 6.61867C19.7478 6.61706 19.7464 6.61545 19.7451 6.61384C19.7224 6.58842 19.6987 6.56339 19.6728 6.53919L13.0067 0.305987C12.9809 0.281785 12.9541 0.259579 12.9269 0.238396C12.9252 0.237081 12.9235 0.235863 12.9217 0.234597C12.6939 0.0589963 12.4252 -0.0123447 12.1651 0.00172872H1.11099C0.497403 0.00172872 0 0.466833 0 1.04058V23.8957C0 24.4694 0.497403 24.9345 1.11099 24.9345H18.8871C19.5007 24.9345 19.9981 24.4694 19.9981 23.8957V7.32618C20.0132 7.08304 19.937 6.83171 19.7492 6.61867ZM16.2049 6.23493H13.3321V3.54862L16.2049 6.23493ZM2.22204 22.8568V2.07943H11.1101V7.27379C11.1101 7.84753 11.6075 8.31264 12.2211 8.31264H17.7762V22.8568H2.22204Z"/>
<path d="M6.96846 10.0806L5.63733 11.076L5.49818 10.9459C5.06431 10.5402 4.36083 10.5402 3.92696 10.9459C3.4931 11.3516 3.4931 12.0094 3.92696 12.4151L4.76913 13.2025C5.16935 13.5768 5.80653 13.6098 6.24863 13.2793L8.3562 11.7033C8.83542 11.345 8.91323 10.6912 8.52998 10.2431C8.14674 9.79502 7.44769 9.72227 6.96846 10.0806Z" />
<path d="M6.96846 14.2361L5.63733 15.2314L5.49818 15.1013C5.06431 14.6956 4.36083 14.6956 3.92696 15.1013C3.4931 15.507 3.4931 16.1648 3.92696 16.5705L4.76913 17.358C5.16935 17.7322 5.80653 17.7653 6.24863 17.4347L8.3562 15.8588C8.83542 15.5004 8.91323 14.8467 8.52998 14.3986C8.14679 13.9505 7.44769 13.8778 6.96846 14.2361Z" />
<path d="M15.554 18.7013H11.11C10.4964 18.7013 9.99902 19.1664 9.99902 19.7402C9.99902 20.3139 10.4964 20.779 11.11 20.779H15.554C16.1676 20.779 16.665 20.3139 16.665 19.7402C16.665 19.1664 16.1676 18.7013 15.554 18.7013Z" />
<path d="M15.554 14.5458H11.11C10.4964 14.5458 9.99902 15.0109 9.99902 15.5847C9.99902 16.1584 10.4964 16.6235 11.11 16.6235H15.554C16.1676 16.6235 16.665 16.1584 16.665 15.5847C16.665 15.0109 16.1676 14.5458 15.554 14.5458Z" />
<path d="M15.554 10.3904H11.11C10.4964 10.3904 9.99902 10.8555 9.99902 11.4292C9.99902 12.003 10.4964 12.4681 11.11 12.4681H15.554C16.1676 12.4681 16.665 12.003 16.665 11.4292C16.665 10.8555 16.1676 10.3904 15.554 10.3904Z" />
<path d="M6.96846 18.3915L5.63733 19.3869L5.49818 19.2568C5.06431 18.8511 4.36083 18.8511 3.92696 19.2568C3.4931 19.6625 3.4931 20.3203 3.92696 20.726L4.76913 21.5135C5.16935 21.8877 5.80653 21.9208 6.24863 21.5902L8.3562 20.0142C8.83542 19.6559 8.91323 19.0021 8.52998 18.554C8.14674 18.1059 7.44769 18.0332 6.96846 18.3915Z"/>
</svg>
