<svg width="25" height="24" viewBox="0 0 25 24"  xmlns="http://www.w3.org/2000/svg">
<path d="M12.4999 21.4283C6.74709 21.4283 2.08333 17.0674 2.08333 11.6882C2.08333 6.30897 6.74709 1.948 12.4999 1.948C17.2891 1.948 21.7251 4.96332 22.9557 9.03122C23.1123 9.54883 23.688 9.84976 24.2416 9.70333C24.7952 9.55691 25.117 9.01862 24.9604 8.50096C23.4716 3.57946 18.2055 0 12.4999 0C5.59652 0 0 5.23311 0 11.6882C0 18.1432 5.59652 23.3764 12.4999 23.3764C13.0751 23.3764 13.5415 22.9403 13.5415 22.4024C13.5415 21.8644 13.0751 21.4283 12.4999 21.4283Z"/>
<path d="M12.5006 5.84409C11.9253 5.84409 11.459 6.28015 11.459 6.81808V10.7141H9.37562C8.80034 10.7141 8.33398 11.1502 8.33398 11.6881C8.33398 12.226 8.80034 12.6621 9.37562 12.6621H12.5006C13.0759 12.6621 13.5422 12.226 13.5422 11.6881V6.81808C13.5422 6.28015 13.0759 5.84409 12.5006 5.84409Z" />
<path d="M21.8745 15.5842H20.8329V13.6362H22.9162C23.4915 13.6362 23.9578 13.2001 23.9578 12.6622C23.9578 12.1243 23.4915 11.6882 22.9162 11.6882H20.8329V10.7142C20.8329 10.1763 20.3665 9.7402 19.7912 9.7402C19.216 9.7402 18.7496 10.1763 18.7496 10.7142V11.6882H17.708C15.9817 11.6882 14.583 12.996 14.583 14.6102C14.583 16.2244 15.9817 17.5323 17.708 17.5323H18.7496V19.4803H16.6662C16.0909 19.4803 15.6246 19.9164 15.6246 20.4543C15.6246 20.9922 16.0909 21.4283 16.6662 21.4283H18.7496V22.4023C18.7496 22.9402 19.2159 23.3763 19.7912 23.3763C20.3665 23.3763 20.8328 22.9402 20.8328 22.4023V21.4283H21.8745C23.6008 21.4283 24.9995 20.1205 24.9995 18.5063C24.9995 16.8921 23.6008 15.5842 21.8745 15.5842ZM17.7079 15.5842C17.1322 15.5842 16.6663 15.1486 16.6663 14.6102C16.6663 14.0719 17.1322 13.6362 17.7079 13.6362H18.7496V15.5843H17.7079V15.5842ZM21.8745 19.4803H20.8329V17.5322H21.8745C22.4503 17.5322 22.9162 17.9679 22.9162 18.5062C22.9162 19.0446 22.4503 19.4803 21.8745 19.4803Z" />
</svg>
