<svg width="30" height="32" viewBox="0 0 30 32"  xmlns="http://www.w3.org/2000/svg">
<path d="M28.3523 13.2694L26.7335 12.9297C25.2134 12.6118 24.5164 10.677 25.4317 9.31709L26.4477 7.80767C26.8047 7.27741 26.7531 6.54269 26.3264 6.07769L24.1317 3.68629C23.7172 3.23459 23.0668 3.16708 22.5814 3.52536L21.217 4.53255C19.9359 5.47748 18.1875 4.64615 17.9514 2.97961L17.6912 1.13034C17.5997 0.480115 17.0863 0 16.4826 0H13.3783C12.7919 0 12.2882 0.453636 12.1776 1.08113L11.7766 3.35799C11.4903 4.97738 9.77777 5.75051 8.52407 4.82544L6.7623 3.52523C6.27698 3.16702 5.62661 3.23459 5.21213 3.68623L3.01736 6.07762C2.59062 6.54263 2.53909 7.27735 2.89603 7.80761L3.91206 9.31709C4.82739 10.677 4.13036 12.6117 2.61096 12.9295L0.99144 13.2694C0.415913 13.3902 0 13.939 0 14.5776V17.9589C0 18.6164 0.440156 19.1756 1.03649 19.2757L2.73476 19.5607C4.26493 19.8171 5.02781 21.7226 4.15965 23.1189L3.23526 24.6058C2.90646 25.1347 2.96848 25.8434 3.38296 26.2951L5.5776 28.6865C6.00435 29.1515 6.67863 29.2076 7.16526 28.8187L8.55055 27.7116C9.79858 26.7142 11.5746 27.4737 11.8671 29.1299L12.1775 30.8931C12.288 31.5207 12.7919 31.9744 13.3783 31.9744H16.4826C17.0862 31.9744 17.5995 31.4944 17.6911 30.8443L17.8745 29.5426C18.1151 27.8387 19.9281 27.02 21.2041 28.0394L22.178 28.8184C22.6647 29.2076 23.3392 29.1516 23.766 28.6864L25.9607 26.295C26.3752 25.8433 26.4372 25.1347 26.1084 24.6058L25.184 23.119C24.3158 21.7226 25.0787 19.8171 26.6085 19.5608L28.3071 19.2757C28.9036 19.1756 29.3438 18.6164 29.3438 17.9589V14.5776C29.3438 13.939 28.9278 13.3902 28.3523 13.2694ZM26.8984 16.8162L26.2366 16.9273C22.9324 17.4809 21.2842 21.5973 23.1597 24.6134L23.5175 25.189L22.779 25.9938L22.6505 25.891C19.8937 23.6886 15.9773 25.457 15.4575 29.1378L15.4333 29.3097H14.3886L14.2684 28.6271C13.6364 25.0491 9.80024 23.4084 7.10423 25.5629L6.5648 25.994L5.82605 25.189L6.18397 24.6133C8.05933 21.5972 6.41127 17.4809 3.1066 16.9272L2.44516 16.8161V15.6777L3.07255 15.5461C6.3551 14.8595 7.86115 10.6791 5.88377 7.74123L5.48814 7.15345L6.22695 6.34841L7.15265 7.03161C9.86024 9.02944 13.5593 7.35966 14.1777 3.86103L14.3885 2.66449H15.433L15.5344 3.38466C16.0444 6.98496 19.8202 8.78021 22.5879 6.73866L23.1166 6.34841L23.8553 7.15339L23.4597 7.7411C21.4823 10.679 22.9883 14.8594 26.2716 15.5462L26.8982 15.6777V16.8162H26.8984Z" />
<path d="M14.6709 9.32544C11.2948 9.32544 8.55762 12.308 8.55762 15.9868C8.55762 19.6656 11.2948 22.6481 14.6709 22.6481C18.047 22.6481 20.7842 19.6655 20.7842 15.9867C20.7842 12.3079 18.047 9.32544 14.6709 9.32544ZM14.6709 19.9836C12.6453 19.9836 11.0029 18.1939 11.0029 15.9868C11.0029 13.7796 12.6453 11.99 14.6709 11.99C16.6965 11.99 18.3389 13.7796 18.3389 15.9868C18.3389 18.1939 16.6965 19.9836 14.6709 19.9836Z" />
</svg>
