<svg width="23" height="24" viewBox="0 0 23 24"  xmlns="http://www.w3.org/2000/svg">
<path d="M20.9091 13.2251V4.09016C20.9091 2.91094 19.887 1.95515 18.6258 1.95515H15.6821V1.48885C15.6821 0.666412 14.9693 0 14.0898 0H6.81973C5.94023 0 5.22749 0.666412 5.22749 1.48885V1.95515H2.28327C1.02216 1.95515 0 2.91094 0 4.09016V21.3266C0 22.5059 1.02216 23.4616 2.28327 23.4616H16.7273C20.1911 23.4616 23 20.8352 23 17.5962C23 15.8595 22.1922 14.2992 20.9091 13.2251ZM7.31842 1.95515H13.591V3.91031H7.31842V1.95515ZM2.28327 21.5065C2.17693 21.5065 2.09093 21.4261 2.09093 21.3266V4.09016C2.09093 3.99073 2.17693 3.91031 2.28327 3.91031H5.22729V4.37661C5.22729 5.199 5.93998 5.86541 6.81954 5.86541H6.81973H14.0896H14.0898C14.9693 5.86541 15.6821 5.199 15.6821 4.37656V3.91026H18.6258C18.7322 3.91026 18.8182 3.99068 18.8182 4.09012V12.0651C18.2867 11.8894 17.7225 11.7788 17.1362 11.7435C17.1325 11.7433 17.1287 11.7431 17.125 11.7428C17.0875 11.7406 17.0499 11.7386 17.0122 11.7371C16.9912 11.7361 16.9702 11.7355 16.9492 11.7348C16.9241 11.734 16.8991 11.733 16.874 11.7325C16.8252 11.7314 16.7763 11.7308 16.7273 11.7308C13.2634 11.7308 10.4545 14.3572 10.4545 17.5962C10.4545 17.645 10.4552 17.6937 10.4565 17.7423C10.4569 17.7585 10.4578 17.7746 10.4583 17.7908C10.4594 17.8231 10.4606 17.8555 10.4622 17.8876C10.4632 17.9067 10.4646 17.9257 10.4658 17.9448C10.4676 17.9739 10.4694 18.0031 10.4717 18.0321C10.4733 18.0523 10.4753 18.0724 10.4771 18.0926C10.4796 18.1203 10.4821 18.148 10.485 18.1756C10.4871 18.1963 10.4896 18.2169 10.492 18.2375C10.4951 18.2645 10.4983 18.2914 10.5018 18.3182C10.5046 18.3391 10.5075 18.36 10.5105 18.3808C10.5143 18.4071 10.5182 18.4335 10.5223 18.4597C10.5256 18.4807 10.5291 18.5016 10.5326 18.5225C10.537 18.5486 10.5417 18.5746 10.5464 18.6006C10.5502 18.6213 10.5541 18.6419 10.5582 18.6625C10.5633 18.6886 10.5687 18.7147 10.5742 18.7406C10.5785 18.7609 10.5827 18.7812 10.5873 18.8014C10.5931 18.8276 10.5993 18.8536 10.6055 18.8797C10.6103 18.8995 10.6149 18.9194 10.6199 18.9392C10.6265 18.9657 10.6336 18.9921 10.6406 19.0184C10.6457 19.0375 10.6506 19.0565 10.6559 19.0755C10.6635 19.1032 10.6717 19.1307 10.6798 19.1583C10.6849 19.1756 10.6899 19.1931 10.6952 19.2104C10.7047 19.2415 10.7147 19.2725 10.7248 19.3034C10.7292 19.317 10.7333 19.3306 10.7378 19.344C10.7526 19.3883 10.7679 19.4324 10.7837 19.4763C10.7859 19.4824 10.7884 19.4885 10.7906 19.4946C10.8043 19.5323 10.8184 19.5698 10.833 19.6071C10.8389 19.6223 10.8452 19.6374 10.8512 19.6525C10.8625 19.6806 10.8737 19.7087 10.8854 19.7366C10.8927 19.7538 10.9002 19.7709 10.9076 19.7881C10.9187 19.8136 10.9296 19.8392 10.9411 19.8645C10.9492 19.8826 10.9575 19.9004 10.9658 19.9183C10.977 19.9427 10.9883 19.9671 10.9999 19.9912C11.0086 20.0094 11.0175 20.0275 11.0264 20.0456C11.038 20.0692 11.0498 20.0928 11.0617 20.1163C11.071 20.1345 11.0805 20.1527 11.09 20.1709C11.102 20.194 11.1143 20.217 11.1267 20.2399C11.1365 20.258 11.1464 20.276 11.1563 20.294C11.169 20.3167 11.1818 20.3394 11.1947 20.362C11.2049 20.3798 11.2152 20.3976 11.2256 20.4153C11.2389 20.4378 11.2524 20.4603 11.2659 20.4827C11.2764 20.5 11.2869 20.5174 11.2977 20.5347C11.3116 20.5572 11.3259 20.5795 11.3401 20.6018C11.3509 20.6187 11.3616 20.6356 11.3726 20.6523C11.3875 20.6752 11.4028 20.6978 11.418 20.7205C11.4287 20.7363 11.4393 20.7522 11.4501 20.768C11.4667 20.792 11.4836 20.8158 11.5005 20.8396C11.5105 20.8536 11.5204 20.8679 11.5305 20.8818C11.5506 20.9096 11.5711 20.937 11.5917 20.9643C11.599 20.9741 11.6062 20.9841 11.6136 20.9938C11.6418 21.0308 11.6704 21.0676 11.6995 21.1039C11.7057 21.1117 11.7121 21.1192 11.7183 21.127C11.7413 21.1555 11.7645 21.1839 11.788 21.2119C11.7989 21.225 11.8101 21.2377 11.8211 21.2506C11.8403 21.2732 11.8595 21.2957 11.8791 21.318C11.8916 21.3322 11.9044 21.3463 11.9171 21.3604C11.9356 21.3811 11.9541 21.4017 11.9729 21.4222C11.9864 21.4368 12 21.4511 12.0136 21.4656C12.0264 21.4793 12.039 21.4931 12.052 21.5066H2.28327V21.5065ZM16.7273 21.5065C14.4182 21.5065 12.5455 19.7554 12.5455 17.5962C12.5455 15.4371 14.4182 13.686 16.7273 13.686C16.7909 13.686 16.8541 13.6879 16.9171 13.6905C16.9493 13.6919 16.9815 13.694 17.0136 13.6961C17.0389 13.6977 17.0642 13.6994 17.0894 13.7015C17.8635 13.7665 18.5967 14.0387 19.2335 14.4885L19.551 14.7127C20.3855 15.4276 20.9091 16.4548 20.9091 17.5962C20.9091 19.7554 19.0364 21.5065 16.7273 21.5065Z" />
<path d="M18.0783 15.9274L16.7266 17.1913L16.4204 16.905C16.0122 16.5233 15.3502 16.5233 14.9419 16.905C14.5337 17.2868 14.5337 17.9058 14.9419 18.2875L15.9874 19.2651C16.3956 19.6468 17.0576 19.6468 17.4659 19.2651L19.5568 17.3099C19.9651 16.9282 19.9651 16.3092 19.5568 15.9274C19.1485 15.5457 18.4866 15.5457 18.0783 15.9274Z" />
<path d="M5.22708 9.77568H7.31801C7.89539 9.77568 8.36345 9.33802 8.36345 8.79813C8.36345 8.25824 7.89539 7.82059 7.31801 7.82059H5.22708C4.64969 7.82059 4.18164 8.25824 4.18164 8.79813C4.18164 9.33802 4.64969 9.77568 5.22708 9.77568Z" />
<path d="M11.5005 9.77568H15.6823C16.2597 9.77568 16.7278 9.33802 16.7278 8.79813C16.7278 8.25824 16.2597 7.82059 15.6823 7.82059H11.5005C10.9231 7.82059 10.4551 8.25824 10.4551 8.79813C10.4551 9.33802 10.9231 9.77568 11.5005 9.77568Z" />
<path d="M8.36397 15.6411H4.18216C3.60477 15.6411 3.13672 16.0787 3.13672 16.6186C3.13672 17.1585 3.60477 17.5962 4.18216 17.5962H8.36397C8.94135 17.5962 9.40941 17.1586 9.40941 16.6187C9.40941 16.0788 8.94135 15.6411 8.36397 15.6411Z" />
<path d="M5.22708 13.686H10.4544C11.0318 13.686 11.4998 13.2483 11.4998 12.7084C11.4998 12.1685 11.0318 11.7309 10.4544 11.7309H5.22708C4.64969 11.7309 4.18164 12.1685 4.18164 12.7084C4.18164 13.2483 4.64969 13.686 5.22708 13.686Z" />
</svg>
