<svg width="25" height="24" viewBox="0 0 25 24"  xmlns="http://www.w3.org/2000/svg">
<path d="M22.5136 16.8681L20.8333 16.1948V14.0737C22.1432 12.9767 22.9167 11.4204 22.9167 9.74031V5.37764C22.9167 2.40821 20.3416 0 17.1657 0H16.1678C14.1219 0 12.3256 0.999444 11.3061 2.50436C10.4765 2.15787 9.52267 1.94885 8.66769 1.94885H7.66979C4.55885 1.94885 2.0833 4.75295 2.0833 7.81443V10.7365C2.0833 12.4166 2.85679 13.9729 4.16666 15.0699V16.1946L2.48653 16.8679C0.978273 17.4725 0 18.8601 0 20.395V22.4034C0 22.9413 0.466358 23.3774 1.04165 23.3774H9.37502C9.38058 23.3774 9.386 23.3767 9.39152 23.3766H23.9583C24.5336 23.3766 25 22.9405 25 22.4026V20.3942C25 18.8601 24.0215 17.4726 22.5136 16.8681ZM2.0833 20.395C2.0833 19.6392 2.56509 18.9559 3.30728 18.6584L5.61861 17.7321C6.00162 17.5786 6.24996 17.2265 6.24996 16.8369V14.6112C6.24996 14.3059 6.09684 14.0182 5.83639 13.8341C4.78966 13.0944 4.16666 11.9652 4.16666 10.7365V7.81443C4.16666 5.75513 5.80714 3.89687 7.66979 3.89687H8.66769C9.25231 3.89687 9.95319 4.06197 10.5294 4.31386C10.5072 4.41709 10.4885 4.52142 10.4727 4.62666C10.4384 4.81071 10.4197 4.97909 10.4197 5.14163L10.4197 5.20916C10.4178 5.26509 10.4166 5.32116 10.4166 5.37755V9.74022V9.74035C10.4166 9.79017 10.4174 9.83984 10.4188 9.88943C10.4193 9.90742 10.4202 9.92531 10.4209 9.9433C10.422 9.97444 10.4232 10.0055 10.4249 10.0366C10.4261 10.06 10.4279 10.0833 10.4294 10.1066C10.4311 10.1315 10.4327 10.1563 10.4348 10.1811C10.437 10.2085 10.4396 10.2358 10.4423 10.2631C10.4442 10.2828 10.4461 10.3024 10.4482 10.3221C10.4516 10.3539 10.4554 10.3856 10.4594 10.4173C10.4611 10.4307 10.4628 10.4439 10.4646 10.4573C10.4696 10.4949 10.4749 10.5324 10.4807 10.5698C10.4814 10.5742 10.4822 10.5787 10.4828 10.5831C10.6951 11.9353 11.4124 13.1628 12.5 14.0737V16.1948L11.4147 16.6297L10.8201 16.8678C9.99812 17.1973 9.3341 17.7596 8.89943 18.4512C8.53649 19.0287 8.33327 19.6961 8.33327 20.3942V20.395V21.4294H2.08326V20.395H2.0833ZM22.9167 21.4286H10.4167V20.395C10.4167 20.0801 10.5006 19.778 10.6518 19.5109C10.8635 19.1371 11.2077 18.8321 11.6406 18.6586L12.2348 18.4204L12.91 18.1501L13.4635 17.9281L13.952 17.7323C14.335 17.5788 14.5834 17.2267 14.5834 16.837V16.8369V13.615V13.6148C14.5834 13.5966 14.5827 13.5785 14.5817 13.5605C14.5813 13.555 14.5807 13.5497 14.5803 13.5443C14.5793 13.5316 14.5783 13.519 14.5767 13.5064C14.576 13.5 14.5749 13.4937 14.5741 13.4874C14.5724 13.4758 14.5707 13.4643 14.5686 13.4528C14.5675 13.4462 14.5661 13.4397 14.5647 13.4331C14.5624 13.4219 14.56 13.4107 14.5573 13.3996C14.5557 13.3931 14.5541 13.3867 14.5524 13.3803C14.5494 13.3691 14.5462 13.3579 14.5428 13.3468C14.5409 13.3407 14.539 13.3347 14.5371 13.3286C14.5333 13.3171 14.5292 13.3057 14.525 13.2943C14.5229 13.2889 14.521 13.2834 14.5188 13.278C14.5139 13.2657 14.5087 13.2535 14.5033 13.2413C14.5014 13.2371 14.4997 13.2328 14.4977 13.2285C14.491 13.214 14.4839 13.1996 14.4764 13.1854C14.4755 13.1837 14.4747 13.182 14.4738 13.1803C14.4563 13.1474 14.4367 13.1154 14.4153 13.0845C14.4148 13.0838 14.4143 13.0832 14.4138 13.0825C14.4038 13.0682 14.3934 13.0541 14.3825 13.0403C14.3804 13.0376 14.3782 13.035 14.3761 13.0323C14.3667 13.0205 14.3571 13.0089 14.3471 12.9976C14.3442 12.9942 14.3411 12.9909 14.3382 12.9877C14.3286 12.9771 14.3189 12.9667 14.3089 12.9565C14.3055 12.953 14.3021 12.9496 14.2987 12.9462C14.2886 12.9363 14.2783 12.9266 14.2678 12.917C14.2643 12.9137 14.2607 12.9105 14.2571 12.9073C14.2525 12.9033 14.2482 12.8991 14.2435 12.8951L13.5945 12.3419C13.4287 12.1779 13.2791 11.9984 13.1471 11.8068C13.1407 11.7974 13.1342 11.7881 13.1278 11.7786C13.1016 11.7398 13.0763 11.7004 13.0516 11.6607C13.0392 11.6407 13.0273 11.6205 13.0153 11.6004C13.0021 11.5781 12.9891 11.5557 12.9763 11.5331C12.9577 11.5004 12.9397 11.4673 12.9221 11.434C12.9091 11.4092 12.8961 11.3844 12.8836 11.3593C12.8721 11.3363 12.8609 11.3132 12.8499 11.2899C12.836 11.2605 12.8224 11.2308 12.8093 11.2009C12.7979 11.1751 12.7869 11.1492 12.7761 11.1232C12.7628 11.0911 12.7499 11.0588 12.7375 11.0263C12.7311 11.0094 12.7245 10.9925 12.7183 10.9754C12.7018 10.93 12.6861 10.8842 12.6714 10.8381C12.6674 10.8255 12.6636 10.8128 12.6597 10.8002C12.6457 10.7546 12.6324 10.7088 12.6202 10.6627C12.6187 10.6569 12.617 10.6513 12.6155 10.6455C12.602 10.5935 12.5899 10.541 12.5787 10.4883C12.5765 10.4781 12.5744 10.4679 12.5723 10.4577C12.5615 10.4044 12.5516 10.3509 12.5432 10.2971C12.5424 10.2921 12.5418 10.2871 12.541 10.2822C12.5333 10.2311 12.5267 10.1798 12.5212 10.1282C12.5202 10.1194 12.5191 10.1107 12.5182 10.1019C12.5129 10.0486 12.5088 9.99508 12.5058 9.94129C12.5052 9.92997 12.5047 9.9186 12.5042 9.90728C12.5016 9.85249 12.4999 9.79756 12.4999 9.74236C12.4999 9.74172 12.4999 9.74104 12.4999 9.7404L12.5029 5.26523C12.507 5.14766 12.5173 5.0316 12.5337 4.91732C12.5433 4.8702 12.5549 4.81847 12.5691 4.76144C12.588 4.68552 12.6103 4.60351 12.6383 4.50544C12.645 4.48184 12.7045 4.27866 12.738 4.16178C13.263 2.86825 14.6002 1.94812 16.1676 1.94812H17.1655C19.1908 1.94812 20.8332 3.48408 20.8332 5.37768V9.74035C20.8332 10.969 20.2102 12.0982 19.1635 12.838C18.903 13.0221 18.7499 13.3097 18.7499 13.615V16.8371C18.7499 17.2268 18.9982 17.5789 19.3812 17.7324L21.6927 18.6587C22.4347 18.9561 22.9166 19.6395 22.9166 20.3943V21.4286H22.9167Z" />
</svg>
