<svg width="32" height="36" viewBox="0 0 32 36" fill="none" xmlns="http://www.w3.org/2000/svg">
<path fill-rule="evenodd" clip-rule="evenodd" d="M14.8938 21.6957C14.6052 21.6957 14.3285 21.8372 14.1244 22.089C13.9203 22.3409 13.8057 22.6825 13.8057 23.0386C13.8057 23.3948 13.9203 23.7363 14.1244 23.9882C14.3285 24.24 14.6052 24.3815 14.8938 24.3815H25.7755C26.0641 24.3815 26.3409 24.24 26.545 23.9882C26.749 23.7363 26.8637 23.3948 26.8637 23.0386C26.8637 22.6825 26.749 22.3409 26.545 22.089C26.3409 21.8372 26.0641 21.6957 25.7755 21.6957H14.8938Z" fill="#D62B2B"/>
<path fill-rule="evenodd" clip-rule="evenodd" d="M6.18827 10.9525C5.89967 10.9525 5.6229 11.0939 5.41883 11.3458C5.21476 11.5976 5.1001 11.9392 5.1001 12.2954C5.1001 12.6515 5.21476 12.9931 5.41883 13.2449C5.6229 13.4968 5.89967 13.6383 6.18827 13.6383H17.07C17.3586 13.6383 17.6353 13.4968 17.8394 13.2449C18.0435 12.9931 18.1581 12.6515 18.1581 12.2954C18.1581 11.9392 18.0435 11.5976 17.8394 11.3458C17.6353 11.0939 17.3586 10.9525 17.07 10.9525H6.18827Z" fill="#D62B2B"/>
<path fill-rule="evenodd" clip-rule="evenodd" d="M6.18827 5.58086C5.89967 5.58086 5.6229 5.72232 5.41883 5.97416C5.21476 6.22601 5.1001 6.5676 5.1001 6.92376C5.1001 7.27992 5.21476 7.62148 5.41883 7.87332C5.6229 8.12516 5.89967 8.26667 6.18827 8.26667H17.07C17.3586 8.26667 17.6353 8.12516 17.8394 7.87332C18.0435 7.62148 18.1581 7.27992 18.1581 6.92376C18.1581 6.5676 18.0435 6.22601 17.8394 5.97416C17.6353 5.72232 17.3586 5.58086 17.07 5.58086H6.18827Z" fill="#D62B2B"/>
<path fill-rule="evenodd" clip-rule="evenodd" d="M4.01207 0.209236C2.22202 0.209236 0.747559 2.02886 0.747559 4.23795V23.0386C0.747559 23.9302 1.22439 24.7052 1.81235 25.0058C2.4003 25.3063 3.18239 25.1746 3.69327 24.5441C3.70564 24.5279 3.71769 24.5113 3.7294 24.4943L7.75903 19.0099H9.45292V25.7244C9.45292 27.9335 10.9274 29.7532 12.7174 29.7532H24.2048L28.2345 35.2402C28.2462 35.2563 28.2583 35.2721 28.2706 35.2875C28.7814 35.9179 29.5635 36.0495 30.1515 35.7491C30.7395 35.4486 31.2163 34.6736 31.2163 33.782V14.9813C31.2163 12.7722 29.7419 10.9526 27.9518 10.9526H22.511V4.23803C22.511 2.02894 21.0365 0.209318 19.2464 0.209318L4.01207 0.209236ZM4.01207 2.89505H19.2464C19.8603 2.89505 20.3346 3.48038 20.3346 4.23795V14.9812C20.3346 15.7388 19.8603 16.3241 19.2464 16.3241H7.27658C7.12484 16.3242 6.97479 16.3635 6.83607 16.4393C6.69735 16.5152 6.57303 16.6261 6.47108 16.7647L2.9239 21.5961V4.23795C2.9239 3.48038 3.3982 2.89505 4.01207 2.89505ZM22.511 13.6383H27.9518C28.5657 13.6383 29.04 14.2236 29.04 14.9812V32.3393L25.4928 27.508C25.3908 27.3693 25.2665 27.2585 25.1278 27.1826C24.9891 27.1067 24.839 27.0674 24.6873 27.0673H12.7174C12.1036 27.0673 11.6293 26.482 11.6293 25.7244V19.0099H19.2464H25.7755C26.0641 19.0099 26.3408 18.8684 26.5449 18.6166C26.749 18.3647 26.8636 18.0232 26.8636 17.667C26.8636 17.3108 26.749 16.9692 26.5449 16.7174C26.3408 16.4656 26.0641 16.3241 25.7755 16.3241H22.3175C22.44 15.9029 22.511 15.4516 22.511 14.9812V13.6383Z" fill="#D62B2B"/>
</svg>
