<svg width="43" height="47" viewBox="0 0 43 47" fill="none" xmlns="http://www.w3.org/2000/svg">
<path d="M37.0301 6.23531H5.96986C2.67297 6.23531 0 9.15692 0 12.7605V34.2395C0 37.8431 2.67297 40.7647 5.96986 40.7647H37.0301C40.3269 40.7647 43 37.8431 43 34.2395V12.7605C43 9.15692 40.3269 6.23531 37.0301 6.23531ZM14.9632 29.5329L6.60336 37.3283C6.0137 37.8783 5.12725 37.8019 4.6241 37.1567C4.12086 36.5122 4.19082 35.5433 4.78115 34.9933L13.141 27.1979C13.7305 26.6479 14.6169 26.7244 15.1201 27.3696C15.6234 28.014 15.5534 28.9829 14.9632 29.5329ZM21.5 26.5693C20.3818 26.5663 19.2979 26.1602 18.4505 25.3592L18.4512 25.3599L18.4485 25.3577C18.4492 25.3584 18.4499 25.3584 18.4505 25.3592L5.62376 13.1907C5.03755 12.6346 4.97515 11.6657 5.48317 11.0258C5.99187 10.3851 6.87832 10.3169 7.46369 10.8721L20.2941 23.0437C20.5683 23.3104 21.0201 23.503 21.5 23.5C21.9792 23.5016 22.4234 23.3142 22.7127 23.0384L22.7189 23.0325L35.5362 10.8722C36.1217 10.317 37.0081 10.3852 37.5168 11.0259C38.0248 11.6657 37.9624 12.6347 37.3762 13.1908L24.5459 25.3629C23.7013 26.1556 22.6188 26.5678 21.5 26.5693ZM38.3765 37.1567C37.8733 37.8019 36.9868 37.8783 36.3973 37.3283L28.0375 29.5329C27.4473 28.9828 27.3773 28.014 27.8805 27.3696C28.3837 26.7244 29.2702 26.648 29.8597 27.1979L38.2195 34.9933C38.8098 35.5433 38.8797 36.5122 38.3765 37.1567Z" fill="#4CC9CF"/>
</svg>
