<svg width="49" height="51" viewBox="0 0 49 51" fill="none" xmlns="http://www.w3.org/2000/svg">
<path d="M15.2344 41.7793H38.5938L44.6875 48.0462V26.112C44.6875 23.8142 42.8594 21.9341 40.625 21.9341H15.2344C13 21.9341 11.1719 23.8142 11.1719 26.112V37.6013C11.1719 39.8992 13 41.7793 15.2344 41.7793Z" fill="#4CC9CF"/>
<path d="M29.25 34.259H25.5937L24.8828 36.4524H22.6484L26.4063 26.0076H28.3359L32.0938 36.4524H29.8594L29.25 34.259ZM26.1016 32.5878H28.6406L27.4219 28.6188L26.1016 32.5878Z" fill="white"/>
<path d="M33.5156 26.112H10.1562L4.0625 32.3789V8.35585C4.0625 6.05799 5.89063 4.17793 8.125 4.17793H33.5156C35.75 4.17793 37.5781 6.05799 37.5781 8.35585V21.9341C37.5781 24.232 35.75 26.112 33.5156 26.112Z" fill="#ED8775"/>
<path d="M25.7969 14.8316C25.7969 15.8761 25.5938 16.7117 25.2891 17.4428C24.9844 18.174 24.5781 18.8007 23.9688 19.2185L25.6953 20.5763L24.375 21.8297L22.1406 20.054C21.9375 20.054 21.6328 20.1585 21.3281 20.1585C20.7188 20.1585 20.1094 20.054 19.5 19.8452C18.9922 19.6363 18.4844 19.2185 18.0781 18.8007C17.6719 18.3829 17.3672 17.7562 17.1641 17.1295C16.9609 16.5028 16.8594 15.7717 16.8594 14.9361V14.5183C16.8594 13.6827 16.9609 12.9516 17.1641 12.3249C17.3672 11.6982 17.6719 11.0715 18.0781 10.6537C18.4844 10.2359 18.8906 9.81812 19.5 9.60923C20.0078 9.40033 20.6172 9.29588 21.3281 9.29588C21.9375 9.29588 22.5469 9.40033 23.1562 9.60923C23.6641 9.81812 24.1719 10.2359 24.5781 10.6537C24.9844 11.0715 25.2891 11.6982 25.4922 12.3249C25.6953 12.9516 25.7969 13.6827 25.7969 14.5183V14.8316ZM23.5625 14.3094C23.5625 13.1605 23.3594 12.3249 22.9531 11.8026C22.5469 11.176 22.0391 10.9671 21.3281 10.9671C20.6172 10.9671 20.0078 11.2804 19.7031 11.8026C19.2969 12.4293 19.0938 13.2649 19.0938 14.3094V14.8316C19.0938 15.3539 19.1953 15.8761 19.2969 16.2939C19.3984 16.7117 19.5 17.1295 19.7031 17.3384C19.9063 17.6517 20.1094 17.8606 20.4141 17.9651C20.7187 18.0695 21.0234 18.174 21.3281 18.174C22.0391 18.174 22.6484 17.8606 22.9531 17.3384C23.3594 16.7117 23.5625 15.8761 23.5625 14.7272V14.3094Z" fill="white"/>
</svg>
