<svg width="20" height="20" viewBox="0 0 20 20" fill="none" xmlns="http://www.w3.org/2000/svg">
<path d="M17.1337 15.3663L13.9606 12.1931C14.6163 11.205 15 10.0219 15 8.75C15 5.30375 12.1962 2.5 8.75 2.5C5.30375 2.5 2.5 5.30375 2.5 8.75C2.5 12.1962 5.30375 15 8.75 15C10.0219 15 11.205 14.6163 12.1931 13.9606L15.3663 17.1337C15.8538 17.6219 16.6462 17.6219 17.1337 17.1337C17.6219 16.6456 17.6219 15.8544 17.1337 15.3663ZM4.375 8.75C4.375 6.3375 6.3375 4.375 8.75 4.375C11.1625 4.375 13.125 6.3375 13.125 8.75C13.125 11.1625 11.1625 13.125 8.75 13.125C6.3375 13.125 4.375 11.1625 4.375 8.75Z" fill="#8C8F98"/>
</svg>
