<svg width="30" height="30" viewBox="0 0 30 30" fill="none" xmlns="http://www.w3.org/2000/svg">
<g clip-path="url(#clip0_856_468)">
<path d="M24.375 28.125H5.625C5.12789 28.1244 4.65131 27.9267 4.29981 27.5752C3.9483 27.2237 3.75057 26.7471 3.75 26.25V3.75C3.75057 3.25289 3.9483 2.77631 4.29981 2.42481C4.65131 2.0733 5.12789 1.87557 5.625 1.875H24.375C24.8721 1.87557 25.3487 2.0733 25.7002 2.42481C26.0517 2.77631 26.2494 3.25289 26.25 3.75V26.25C26.2494 26.7471 26.0517 27.2237 25.7002 27.5752C25.3487 27.9267 24.8721 28.1244 24.375 28.125ZM5.625 3.75V26.25H24.375V3.75H5.625Z" fill="white"/>
<path d="M9.375 14.0625L20.625 14.0625V12.1875L9.375 12.1875V14.0625Z" fill="white"/>
<path d="M11.25 18.75H18.75V16.875H11.25V18.75Z" fill="white"/>
</g>
<defs>
<clipPath id="clip0_856_468">
<rect width="30" height="30" fill="white"/>
</clipPath>
</defs>
</svg>
