<svg width="20" height="21" viewBox="0 0 20 21" fill="none" xmlns="http://www.w3.org/2000/svg">
<path d="M5.29292 2.3637C5.38557 2.26898 5.49573 2.19381 5.61707 2.14252C5.7384 2.09122 5.86851 2.06482 5.99992 2.06482C6.13133 2.06482 6.26144 2.09122 6.38277 2.14252C6.5041 2.19381 6.61426 2.26898 6.70692 2.3637L9.70692 5.41311C9.88908 5.60481 9.98987 5.86158 9.98759 6.12809C9.98531 6.39461 9.88014 6.64955 9.69474 6.83801C9.50933 7.02647 9.25852 7.13337 8.99632 7.13569C8.73412 7.13801 8.48152 7.03555 8.29292 6.85039L6.99992 5.5361V13.247C6.99992 13.5166 6.89456 13.7752 6.70703 13.9658C6.51949 14.1564 6.26513 14.2635 5.99992 14.2635C5.7347 14.2635 5.48035 14.1564 5.29281 13.9658C5.10528 13.7752 4.99992 13.5166 4.99992 13.247V5.5361L3.70692 6.85039C3.51832 7.03555 3.26571 7.13801 3.00352 7.13569C2.74132 7.13337 2.49051 7.02647 2.3051 6.83801C2.11969 6.64955 2.01452 6.39461 2.01224 6.12809C2.00997 5.86158 2.11076 5.60481 2.29292 5.41311L5.29292 2.3637ZM12.9999 7.14822C12.9999 6.87863 13.1053 6.62009 13.2928 6.42947C13.4803 6.23884 13.7347 6.13175 13.9999 6.13175C14.2651 6.13175 14.5195 6.23884 14.707 6.42947C14.8946 6.62009 14.9999 6.87863 14.9999 7.14822V14.8581L16.2929 13.5449C16.3858 13.4505 16.496 13.3756 16.6173 13.3246C16.7386 13.2735 16.8686 13.2472 16.9999 13.2472C17.1312 13.2472 17.2612 13.2735 17.3825 13.3246C17.5038 13.3756 17.6141 13.4505 17.7069 13.5449C17.7998 13.6392 17.8734 13.7513 17.9237 13.8746C17.9739 13.9979 17.9998 14.13 17.9998 14.2635C17.9998 14.397 17.9739 14.5291 17.9237 14.6524C17.8734 14.7757 17.7998 14.8878 17.7069 14.9822L14.7069 18.0316C14.6143 18.1263 14.5041 18.2014 14.3828 18.2527C14.2614 18.304 14.1313 18.3304 13.9999 18.3304C13.8685 18.3304 13.7384 18.304 13.6171 18.2527C13.4957 18.2014 13.3856 18.1263 13.2929 18.0316L10.2929 14.9822C10.1997 14.888 10.1258 14.776 10.0753 14.6527C10.0249 14.5293 9.99888 14.3971 9.99888 14.2635C9.99888 14.1299 10.0249 13.9977 10.0753 13.8743C10.1258 13.751 10.1997 13.639 10.2929 13.5449C10.3857 13.4504 10.4959 13.3754 10.6172 13.3243C10.7385 13.2732 10.8686 13.2468 10.9999 13.2468C11.1313 13.2468 11.2613 13.2732 11.3826 13.3243C11.5039 13.3754 11.6141 13.4504 11.7069 13.5449L12.9999 14.8581V7.14822Z" fill="black"/>
</svg>
